:FULLY-SPECIFIED
:FORCE-ALL-JOINTS-BE-3DOF
:DEGREES
781
root 1.6931 16.3244 18.6791 -12.7553 75.8116 -19.3087
lfemur -39.0926 15.1728 -15.6467
ltibia 51.9925 -0 0
lfoot -22.5701 18.0197 -0.133048
ltoes 19.2276 -0 0
rfemur -15.0115 -22.6244 21.8647
rtibia 51.181 -0 0
rfoot -19.6444 -32.2306 -0.0871401
rtoes -22.7379 0 0
lowerback 1.15803 4.69511 -0.710398
upperback -0.964777 6.2455 -3.68629
thorax -1.30149 3.13514 -3.51907
lowerneck -5.374 -6.51272 -0.677528
upperneck -2.61864 -8.55529 5.20212
head 0.361698 -4.2044 1.54875
lclavicle -9.79014e-14 3.18055e-15 0
lhumerus -55.5943 -11.1812 94.3458
lradius 70.0284 -0 0
lwrist 13.5799 0 0
lhand -19.1153 -4.55615 0.0757316
lfingers 7.12502 -0 0
lthumb 7.19341 25.2864 0.0705508
rclavicle -9.79014e-14 3.18055e-15 0
rhumerus -30.4106 48.0565 -112.014
rradius 79.1258 -0 0
rwrist 6.06476 0 0
rhand -22.8673 -21.002 -0.0103066
rfingers 7.12502 -0 0
rthumb 3.57126 -50.9513 -0.0099291
782
root 1.68551 16.3422 18.7737 -9.49959 73.2291 -16.0615
lfemur -39.1055 14.1345 -15.2669
ltibia 52.0017 -0 0
lfoot -22.3594 16.6873 -0.167651
ltoes 18.7227 -0 0
rfemur -14.8192 -21.6771 21.7286
rtibia 50.5569 -0 0
rfoot -19.8295 -31.2348 -0.109772
rtoes -22.5664 0 0
lowerback 1.17707 4.69293 -0.505357
upperback -0.924615 6.24567 -3.57925
thorax -1.26099 3.13366 -3.5215
lowerneck -5.41054 -6.36393 -0.581505
upperneck -2.54328 -8.36836 5.0608
head 0.376973 -4.1123 1.49237
lclavicle -9.79014e-14 3.18055e-15 0
lhumerus -55.5708 -11.0218 94.2444
lradius 69.7987 -0 0
lwrist 14.2072 0 0
lhand -18.766 -4.09645 0.0953771
lfingers 7.12502 -0 0
lthumb 7.53033 25.7303 0.0888516
rclavicle -9.79014e-14 3.18055e-15 0
rhumerus -30.7003 47.9018 -112.244
rradius 78.7712 -0 0
rwrist 5.93472 0 0
rhand -22.814 -21.412 -0.0129794
rfingers 7.12502 -0 0
rthumb 3.62274 -51.3604 -0.0125041
783
root 1.67793 16.36 18.8682 -7.11174 70.6075 -13.6822
lfemur -39.1254 13.0963 -14.8886
ltibia 52.0108 -0 0
lfoot -22.1481 15.3548 -0.197346
ltoes 18.2177 -0 0
rfemur -14.6306 -20.7293 21.5967
rtibia 49.9328 -0 0
rfoot -20.0149 -30.239 -0.129184
rtoes -22.395 0 0
lowerback 1.1961 4.69069 -0.300317
upperback -0.884453 6.24578 -3.47222
thorax -1.22048 3.13218 -3.52393
lowerneck -5.44682 -6.21508 -0.485605
upperneck -2.46843 -8.18125 4.91979
head 0.392155 -4.02019 1.43603
lclavicle -9.79014e-14 3.18055e-15 0
lhumerus -55.5475 -10.8624 94.1432
lradius 69.5691 -0 0
lwrist 14.8345 0 0
lhand -18.4167 -3.63665 0.11222
lfingers 7.12502 -0 0
lthumb 7.86738 26.1743 0.104541
rclavicle -9.79014e-14 3.18055e-15 0
rhumerus -30.9881 47.7463 -112.473
rradius 78.4166 -0 0
rwrist 5.80469 0 0
rhand -22.7607 -21.8221 -0.0152707
rfingers 7.12502 -0 0
rthumb 3.67423 -51.7695 -0.0147114
784
root 1.67034 16.3778 18.9627 -5.28913 67.9607 -11.8683
lfemur -39.1522 12.0583 -14.5115
ltibia 52.0199 -0 0
lfoot -21.936 14.0222 -0.222118
ltoes 17.7128 -0 0
rfemur -14.4454 -19.7811 21.4689
rtibia 49.3088 -0 0
rfoot -20.2007 -29.2431 -0.14537
rtoes -22.2235 0 0
lowerback 1.21512 4.68837 -0.0952782
upperback -0.84429 6.24581 -3.36519
thorax -1.17997 3.1307 -3.52637
lowerneck -5.48284 -6.06617 -0.389826
upperneck -2.39407 -7.99396 4.7791
head 0.407245 -3.92806 1.37971
lclavicle -9.79014e-14 3.18055e-15 0
lhumerus -55.5245 -10.7029 94.0421
lradius 69.3394 -0 0
lwrist 15.4618 0 0
lhand -18.0672 -3.17675 0.126258
lfingers 7.12502 -0 0
lthumb 8.20454 26.6184 0.117618
rclavicle -9.79014e-14 3.18055e-15 0
rhumerus -31.2743 47.5901 -112.7
rradius 78.0621 -0 0
rwrist 5.67465 0 0
rhand -22.7073 -22.2321 -0.0171803
rfingers 7.12502 -0 0
rthumb 3.72574 -52.1785 -0.0165511
785
root 1.66276 16.3956 19.0572 -3.8532 65.2969 -10.441
lfemur -39.1858 11.0205 -14.1353
ltibia 52.029 -0 0
lfoot -21.7235 12.6895 -0.241951
ltoes 17.2078 -0 0
rfemur -14.2635 -18.8326 21.3452
rtibia 48.6847 -0 0
rfoot -20.3867 -28.2471 -0.158325
rtoes -22.052 0 0
lowerback 1.23414 4.68599 0.109759
upperback -0.804128 6.24576 -3.25815
thorax -1.13946 3.12922 -3.5288
lowerneck -5.5186 -5.9172 -0.294168
upperneck -2.32022 -7.80649 4.63871
head 0.422242 -3.83592 1.32342
lclavicle -9.79014e-14 3.18055e-15 0
lhumerus -55.5018 -10.5434 93.9412
lradius 69.1097 -0 0
lwrist 16.0891 0 0
lhand -17.7176 -2.71677 0.13749
lfingers 7.12502 -0 0
lthumb 8.5418 27.0626 0.128081
rclavicle -9.79014e-14 3.18055e-15 0
rhumerus -31.5586 47.4331 -112.925
rradius 77.7075 -0 0
rwrist 5.54462 0 0
rhand -22.654 -22.6422 -0.0187081
rfingers 7.12502 -0 0
rthumb 3.77726 -52.5876 -0.0180229
786
root 1.65517 16.4133 19.1517 -2.69259 62.6211 -9.28921
lfemur -39.2263 9.98288 -13.7597
ltibia 52.0381 -0 0
lfoot -21.5105 11.3568 -0.256836
ltoes 16.7029 -0 0
rfemur -14.0848 -17.8837 21.2252
rtibia 48.0606 -0 0
rfoot -20.5729 -27.2512 -0.168045
rtoes -21.8806 0 0
lowerback 1.25314 4.68354 0.314794
upperback -0.763966 6.24565 -3.15112
thorax -1.09895 3.12775 -3.53124
lowerneck -5.5541 -5.76817 -0.198628
upperneck -2.24685 -7.61884 4.49864
head 0.437147 -3.74376 1.26717
lclavicle -9.79014e-14 3.18055e-15 0
lhumerus -55.4794 -10.3838 93.8403
lradius 68.8801 -0 0
lwrist 16.7164 0 0
lhand -17.3679 -2.25674 0.145915
lfingers 7.12502 -0 0
lthumb 8.87913 27.5068 0.135929
rclavicle -9.79014e-14 3.18055e-15 0
rhumerus -31.8412 47.2753 -113.148
rradius 77.3529 -0 0
rwrist 5.41458 0 0
rhand -22.6006 -23.0523 -0.019854
rfingers 7.12502 -0 0
rthumb 3.82879 -52.9967 -0.0191268
787
root 1.64759 16.4311 19.2462 -1.73454 59.9364 -8.34006
lfemur -39.2735 8.94558 -13.3845
ltibia 52.0472 -0 0
lfoot -21.2973 10.024 -0.266764
ltoes 16.1979 -0 0
rfemur -13.909 -16.9344 21.109
rtibia 47.4365 -0 0
rfoot -20.7592 -26.2551 -0.174526
rtoes -21.7091 0 0
lowerback 1.27214 4.68102 0.519828
upperback -0.723804 6.24545 -3.04408
thorax -1.05844 3.12627 -3.53368
lowerneck -5.58934 -5.61909 -0.103206
upperneck -2.17399 -7.43101 4.35886
head 0.45196 -3.65159 1.21094
lclavicle -9.79014e-14 3.18055e-15 0
lhumerus -55.4573 -10.2243 93.7396
lradius 68.6504 -0 0
lwrist 17.3437 0 0
lhand -17.0182 -1.79666 0.151533
lfingers 7.12502 -0 0
lthumb 9.2165 27.951 0.141162
rclavicle -9.79014e-14 3.18055e-15 0
rhumerus -32.122 47.1168 -113.37
rradius 76.9984 -0 0
rwrist 5.28455 0 0
rhand -22.5473 -23.4623 -0.0206179
rfingers 7.12502 -0 0
rthumb 3.88032 -53.4058 -0.0198628
